<svg width="256" height="256" viewBox="0 0 256 256" fill="none" xmlns="http://www.w3.org/2000/svg">
  <defs>
    <linearGradient id="bg" x1="32" y1="24" x2="224" y2="232" gradientUnits="userSpaceOnUse">
      <stop stop-color="#C6EDFF"/>
      <stop offset="1" stop-color="#4E7E98"/>
    </linearGradient>
    <linearGradient id="wing" x1="74" y1="95" x2="185" y2="158" gradientUnits="userSpaceOnUse">
      <stop stop-color="#E7FAFF"/>
      <stop offset="1" stop-color="#98CFEA"/>
    </linearGradient>
  </defs>
  <rect x="16" y="16" width="224" height="224" rx="56" fill="url(#bg)"/>
  <circle cx="128" cy="128" r="96" fill="#F7EDFF" fill-opacity="0.12"/>
  <ellipse cx="128" cy="132" rx="42" ry="34" fill="#EAF9FF" stroke="#365A70" stroke-width="10"/>
  <path d="M86 125C55 104 48 80 60 63C83 74 99 93 108 118" fill="url(#wing)" stroke="#365A70" stroke-width="10" stroke-linejoin="round"/>
  <path d="M170 125C201 104 208 80 196 63C173 74 157 93 148 118" fill="url(#wing)" stroke="#365A70" stroke-width="10" stroke-linejoin="round"/>
  <circle cx="114" cy="130" r="7" fill="#2A1034"/>
  <circle cx="142" cy="130" r="7" fill="#2A1034"/>
  <path d="M116 147C124 153 132 153 140 147" stroke="#2A1034" stroke-width="8" stroke-linecap="round"/>
  <path d="M110 97L118 82L128 97L138 82L146 97" stroke="#FFD5F3" stroke-width="10" stroke-linecap="round" stroke-linejoin="round"/>
  <path d="M128 166L118 186H138L128 166Z" fill="#FFB0D6" stroke="#365A70" stroke-width="10" stroke-linejoin="round"/>
</svg>
