<svg xmlns="http://www.w3.org/2000/svg" viewBox="0 0 256 256"><defs><radialGradient id="g" cx="50%" cy="50%" r="50%"><stop offset="0%" stop-color="#fffce1"/><stop offset="38%" stop-color="#ffe98e"/><stop offset="70%" stop-color="#ffcb4b"/><stop offset="100%" stop-color="#ff9c2f"/></radialGradient></defs><rect width="256" height="256" rx="48" fill="#4b3410" fill-opacity=".04"/><circle cx="128" cy="128" r="42" fill="url(#g)"/><path d="M128 26l16 40 31-29-9 41 42-7-29 31 40 16-40 16 29 31-42-7 9 41-31-29-16 40-16-40-31 29 9-41-42 7 29-31-40-16 40-16-29-31 42 7-9-41 31 29z" fill="#ffe67a" opacity=".88"/><circle cx="128" cy="128" r="86" stroke="#ffe4a0" stroke-width="10" opacity=".4"/></svg>