<svg xmlns="http://www.w3.org/2000/svg" viewBox="0 0 256 256"><defs><linearGradient id="bg" x1="0" y1="0" x2="1" y2="1"><stop offset="0%" stop-color="#78d08b"/><stop offset="100%" stop-color="#2f7f51"/></linearGradient></defs><rect x="10" y="10" width="236" height="236" rx="58" fill="url(#bg)"/><circle cx="128" cy="128" r="72" fill="#eaffcf" opacity=".95"/><circle cx="128" cy="128" r="46" fill="#78c162"/><path d="M128 78c16 14 24 30 24 47 0 21-12 38-24 53-12-15-24-32-24-53 0-17 8-33 24-47z" fill="#f2ffd8"/><circle cx="114" cy="130" r="6" fill="#2c5b3d"/><circle cx="142" cy="130" r="6" fill="#2c5b3d"/><path d="M114 154c8 6 20 6 28 0" stroke="#2c5b3d" stroke-width="7" stroke-linecap="round"/><circle cx="92" cy="86" r="10" fill="#d7ff87" opacity=".7"/><circle cx="168" cy="92" r="8" fill="#f4ffd7" opacity=".8"/></svg>