<svg width="256" height="256" viewBox="0 0 256 256" fill="none" xmlns="http://www.w3.org/2000/svg">
  <defs>
    <linearGradient id="bg" x1="32" y1="24" x2="224" y2="232" gradientUnits="userSpaceOnUse">
      <stop stop-color="#8BE5FF"/>
      <stop offset="1" stop-color="#2B5DAE"/>
    </linearGradient>
    <linearGradient id="robe" x1="128" y1="84" x2="128" y2="220" gradientUnits="userSpaceOnUse">
      <stop stop-color="#D9F6FF"/>
      <stop offset="1" stop-color="#5BB6E8"/>
    </linearGradient>
  </defs>
  <rect x="16" y="16" width="224" height="224" rx="56" fill="url(#bg)"/>
  <circle cx="128" cy="128" r="96" fill="#F5FBFF" fill-opacity="0.14"/>
  <path d="M70 200C78 146 102 114 128 114C154 114 178 146 186 200" fill="url(#robe)" stroke="#114579" stroke-width="10" stroke-linecap="round" stroke-linejoin="round"/>
  <path d="M98 111C98 84 111 62 128 62C145 62 158 84 158 111V121H98V111Z" fill="#FFF4D8" stroke="#114579" stroke-width="10"/>
  <path d="M93 111C102 95 116 86 128 86C140 86 154 95 163 111" stroke="#114579" stroke-width="10" stroke-linecap="round"/>
  <circle cx="116" cy="113" r="6" fill="#114579"/>
  <circle cx="140" cy="113" r="6" fill="#114579"/>
  <path d="M118 130C123 135 133 135 138 130" stroke="#114579" stroke-width="8" stroke-linecap="round"/>
  <path d="M86 88L102 65L123 80" stroke="#E9FBFF" stroke-width="10" stroke-linecap="round" stroke-linejoin="round"/>
  <path d="M170 88L154 65L133 80" stroke="#E9FBFF" stroke-width="10" stroke-linecap="round" stroke-linejoin="round"/>
  <circle cx="128" cy="176" r="22" fill="#EFFCFF" stroke="#114579" stroke-width="10"/>
  <path d="M128 158V194" stroke="#114579" stroke-width="8" stroke-linecap="round"/>
  <path d="M110 176H146" stroke="#114579" stroke-width="8" stroke-linecap="round"/>
  <path d="M118 166L138 186" stroke="#7CDFFF" stroke-width="8" stroke-linecap="round"/>
</svg>
